{"title":"Gilligan's Island","uid":9952278,"size":17644820625,"categoryP":"video","categoryS":"tv_shows","magnet":"?xt=urn:btih:faaecbbc477e76c5b6e20c88a09de096c05ecb1f&amp;dn=Gilligan%27s+Island&amp;tr=udp%3A%2F%2Ftracker.openbittorrent.com%3A80&amp;tr=udp%3A%2F%2Fopen.demonii.com%3A1337&amp;tr=udp%3A%2F%2Ftracker.coppersurfer.tk%3A6969&amp;tr=udp%3A%2F%2Fexodus.desync.com%3A6969","seeders":4,"leechers":0,"uploader":null,"files":102,"time":1397418644,"description":" &lt;a href=&quot;http://www.imdb.com/title/tt0057751/&quot; rel=&quot;nofollow&quot; target=&quot;_NEW&quot;&gt;http://www.imdb.com/title/tt0057751/&lt;/a&gt;\n\nGeneral\nFormat                                 : AVI\nFormat/Info                              : Audio Video Interleave\nFile size                                : 175 MiB\nDuration                               : 24mn 23s\nOverall bit rate mode                    : Variable\nOverall bit rate                       : 1 003 Kbps\nWriting application                      : VirtualDubMod 1.5.10.2 (build 2540/release)\nWriting library                          : VirtualDubMod build 2540/release\n\nVideo\nID                                     : 0\nFormat                                 : MPEG-4 Visual\nFormat profile                         : Advanced Simple@L5\nFormat settings, BVOP                    : 2\nFormat settings, QPel                    : No\nFormat settings, GMC                   : No warppoints\nFormat settings, Matrix                  : Default (H.263)\nMuxing mode                              : Packed bitstream\nCodec ID                               : XVID\nCodec ID/Hint                            : XviD\nDuration                               : 24mn 23s\nBit rate                               : 915 Kbps\nWidth                                    : 512 pixels\nHeight                                 : 384 pixels\nDisplay aspect ratio                   : 4:3\nFrame rate                             : 23.976 fps\nColor space                              : YUV\nChroma subsampling                     : 4:2:0\nBit depth                                : 8 bits\nScan type                                : Progressive\nCompression mode                       : Lossy\nBits/(Pixel*Frame)                     : 0.194\nStream size                              : 160 MiB (91%)\nWriting library                          : XviD 1.2.1 (UTC 2008-12-04)\n\nAudio\nID                                     : 1\nFormat                                 : MPEG Audio\nFormat version                         : Version 1\nFormat profile                         : Layer 3\nCodec ID                               : 55\nCodec ID/Hint                            : MP3\nDuration                               : 24mn 23s\nBit rate mode                            : Variable\nBit rate                               : 75.6 Kbps\nChannel(s)                             : 1 channel\nSampling rate                            : 48.0 KHz\nCompression mode                       : Lossy\nStream size                              : 13.2 MiB (8%)\nAlignment                                : Aligned on interleaves\nInterleave, duration                   : 24 ms (0.58 video frame)\nInterleave, preload duration           : 213 ms\n\nA group of castaways are stranded on a desert island,\nleft there after a boat trip got caught in a storm.\nIn each episode the eclectic group of castaways attempt an\nescape from the island, but are frequently foiled by infighting\nand bitter recriminations breaking out between the crew.\n","torrent":{"xt":"urn:btih:faaecbbc477e76c5b6e20c88a09de096c05ecb1f","amp;dn":"Gilligan%27s+Island","amp;tr":["udp%3A%2F%2Ftracker.openbittorrent.com%3A80","udp%3A%2F%2Fopen.demonii.com%3A1337","udp%3A%2F%2Ftracker.coppersurfer.tk%3A6969","udp%3A%2F%2Fexodus.desync.com%3A6969"],"infoHash":"faaecbbc477e76c5b6e20c88a09de096c05ecb1f","infoHashBuffer":{"type":"Buffer","data":[250,174,203,188,71,126,118,197,182,226,12,136,160,157,224,150,192,94,203,31]},"announce":[],"urlList":[]}}